# xmcd
#
# Track frame offsets: 
#        150
#        14906
#        27846
#        49590
#        66981
#        82362
#        101090
#        117236
#        132918
#        149624
#        165401
#        183387
#        200070
#        214793
#        232228
#        255308
#        271654
#        287633
#        302824
#        321147
#        339057
#
# Disc length: 4773 seconds
#
# Revision: 0
# Processed by: cddbd v1.5.2PL0 Copyright (c) Steve Scherf et al.
# Submitted via: ExactAudioCopy v1.1
#
DISCID=3e12a315
DTITLE=Various Artist - MNM - Het Beste Van De Teens 2010-2017 - CD 1
DYEAR=2018
DGENRE=Top 40
TTITLE0=Avicii - Levels
TTITLE1=Dimitri Vegas and Like Mike Feat. Ne-Yo - Higher Place
TTITLE2=The Black Eyed Peas - I Gotta Feeling
TTITLE3=Stromae - Papaoutai
TTITLE4=The Chainsmokers Feat. Daya - Don't Let Me Down
TTITLE5=Ellie Goulding - Love Me Like You Do
TTITLE6=Nielson - Sexy Als Ik Dans
TTITLE7=Jonas Blue Feat. Dakota - Fast Car
TTITLE8=Miley Cyrus - Wrecking Ball
TTITLE9=Swedish House Mafia Feat. John Martin - Don't You Worry Child
TTITLE10=Chris Brown - Yeah 3X
TTITLE11=Gers Pardoel Feat. Sef - Bagagedrager
TTITLE12=Emeli Sandé - Next To Me
TTITLE13=Oscar And The Wolf - Princes
TTITLE14=Milky Chance - Stolen Dance
TTITLE15=DNCE - Cake By The Ocean
TTITLE16=Indila - Dernière Danse
TTITLE17=Taio Cruz - Dynamite
TTITLE18=Desiigner - Panda
TTITLE19=James Bay - Hold Back The River
TTITLE20=Gabriel Rios - Gold
EXTD=
EXTT0=
EXTT1=
EXTT2=
EXTT3=
EXTT4=
EXTT5=
EXTT6=
EXTT7=
EXTT8=
EXTT9=
EXTT10=
EXTT11=
EXTT12=
EXTT13=
EXTT14=
EXTT15=
EXTT16=
EXTT17=
EXTT18=
EXTT19=
EXTT20=
PLAYORDER=
